<svg width="64" height="64" viewBox="0 0 64 64" fill="none" xmlns="http://www.w3.org/2000/svg">
<circle cx="31.8983" cy="31.8983" r="31.8983" fill="black"/>
<circle cx="31.7565" cy="31.7565" r="30.0552" fill="white"/>
<circle cx="31.7565" cy="31.7565" r="26.9363" fill="black"/>
<path fill-rule="evenodd" clip-rule="evenodd" d="M38.7032 39.4121V23.8174H46.0753C47.7765 23.8174 49.4581 25.501 49.7613 27.9287C49.7474 29.3713 49.2782 29.9408 48.3436 30.9059C49.883 31.8668 50.6084 32.5921 50.6119 34.4501C50.564 35.8606 50.249 36.5992 49.336 37.8526C48.5568 38.9642 46.6424 39.4121 46.0753 39.4121H38.7032ZM42.1057 27.2199V29.4882C42.1057 29.4882 43.7117 29.5056 45.2247 29.4882C46.7376 29.4707 46.5822 27.2029 45.2247 27.2199C43.8672 27.2369 42.1057 27.2199 42.1057 27.2199ZM42.1057 32.8907V36.0096C42.1057 36.0096 44.2561 36.0105 45.7918 36.0096C47.3274 36.0087 47.1853 32.8903 45.7918 32.8907C44.3982 32.891 42.1057 32.8907 42.1057 32.8907Z" fill="white"/>
<path fill-rule="evenodd" clip-rule="evenodd" d="M13.3264 39.4121L19.139 23.8174H21.9744L28.2123 39.4121H24.2427L23.3921 37.1438H17.7213L16.8707 39.4121H13.3264ZM20.5567 29.7717L19.139 33.7413H21.9744L20.5567 29.7717Z" fill="white"/>
<path d="M34.4501 31.6147C34.4501 32.9458 33.3711 34.0248 32.0401 34.0248C30.709 34.0248 29.63 32.9458 29.63 31.6147C29.63 30.2837 30.709 29.2046 32.0401 29.2046C33.3711 29.2046 34.4501 30.2837 34.4501 31.6147Z" fill="white"/>
</svg>
