<svg width="252" height="152" viewBox="0 0 252 152" fill="none" xmlns="http://www.w3.org/2000/svg">
<path d="M78.9693 148.432C64.0227 148.432 50.5709 145.306 38.6136 139.054C26.7923 132.666 17.4847 123.832 10.6908 112.551C3.89694 101.27 0.5 88.4938 0.5 74.2228C0.5 59.9518 3.89694 47.1758 10.6908 35.8949C17.4847 24.614 26.7923 15.8475 38.6136 9.59548C50.5709 3.20751 64.0227 0.0135193 78.9693 0.0135193C92.0135 0.0135193 108.5 5 111 6.01352C113.5 7.02704 127 10 129.5 17.2038C132 24.4076 111 46.5213 104.5 41.2607C98 36 94.1876 33.4485 81.0074 33.4485C73.2624 33.4485 66.3327 35.1474 60.2182 38.5453C54.2396 41.9431 49.5518 46.7681 46.1549 53.0202C42.8938 59.1363 41.2633 66.2039 41.2633 74.2228C41.2633 82.2418 42.8938 89.3773 46.1549 95.6293C49.5518 101.745 54.2396 106.502 60.2182 109.9C66.3327 113.298 73.2624 114.997 81.0074 114.997C94.1876 114.997 105.397 109.425 114.637 98.2797C127.717 87.1284 138.302 59.9084 138.302 59.9084C138.302 59.9084 146.924 27.9359 155.934 17.2038C168.027 6.46656 185.012 1.09794 206.888 1.09794C215.176 1.09794 222.921 1.91343 230.123 3.54441C237.46 5.17538 240.309 6.29884 248.874 10.476C257.439 14.6532 242.803 43.9327 237.053 41.4645C231.302 38.9964 220.136 34.5329 209.945 34.5329C199.618 34.5329 191.737 36.7755 186.302 41.2607C180.867 45.7458 178.15 52.5416 178.15 61.6478V66.5407C178.15 66.5407 225.318 66.5407 232.976 66.5407C240.635 66.5407 239.55 97.7331 232.976 97.7331C226.402 97.7331 178.15 97.7331 178.15 97.7331V134.191C177.346 150.677 163.654 151.128 140.318 151V121.521C133.388 130.22 124.692 136.879 114.229 141.5C103.767 146.122 92.0135 148.432 78.9693 148.432Z" fill="white"/>
</svg>
